HIERARCHY
ROOT Hips
{
	OFFSET 0.00000 0.00000 0.00000
	CHANNELS 6 Xposition Yposition Zposition Zrotation Yrotation Xrotation 
	JOINT LHipJoint
	{
		OFFSET 0 0 0
		CHANNELS 3 Zrotation Yrotation Xrotation
		JOINT LeftHip
		{
			OFFSET 1.84395 -1.68683 0.74144
			CHANNELS 3 Zrotation Yrotation Xrotation
			JOINT LeftKnee
			{
				OFFSET 2.27037 -6.23779 0.00000
				CHANNELS 3 Zrotation Yrotation Xrotation
				JOINT LeftAnkle
				{
					OFFSET 2.56918 -7.05877 0.00000
					CHANNELS 3 Zrotation Yrotation Xrotation
					JOINT LeftToe
					{
						OFFSET 0.22276 -0.61202 1.71784
						CHANNELS 3 Zrotation Yrotation Xrotation
						End Site
						{
							OFFSET 0.00000 -0.00000 0.91613
						}
					}
				}
			}
		}
	}
	JOINT RHipJoint
	{
		OFFSET 0 0 0
		CHANNELS 3 Zrotation Yrotation Xrotation
		JOINT RightHip
		{
			OFFSET -1.76833 -1.68684 0.74144
			CHANNELS 3 Zrotation Yrotation Xrotation
			JOINT RightKnee
			{
				OFFSET -2.49360 -6.85110 0.00000
				CHANNELS 3 Zrotation Yrotation Xrotation
				JOINT RightAnkle
				{
					OFFSET -2.55538 -7.02085 0.00000
					CHANNELS 3 Zrotation Yrotation Xrotation
					JOINT RightToe
					{
						OFFSET -0.21516 -0.59115 1.68050
						CHANNELS 3 Zrotation Yrotation Xrotation
						End Site
						{
							OFFSET -0.00000 -0.00000 0.89604
						}
					}
				}
			}
		}
	}
	JOINT lowerback
	{
		OFFSET 0 0 0
		CHANNELS 3 Zrotation Yrotation Xrotation
		JOINT Chest
		{
			OFFSET 0.06382 1.72312 -0.19613
			CHANNELS 3 Zrotation Yrotation Xrotation
			JOINT Chest2
			{
				OFFSET -0.00055 1.73507 0.23859
				CHANNELS 3 Zrotation Yrotation Xrotation
				JOINT lowerneck
				{
					OFFSET 0 0 0
					CHANNELS 3 Zrotation Yrotation Xrotation
					JOINT Neck
					{
						OFFSET 0.03638 1.65562 0.09633
						CHANNELS 3 Zrotation Yrotation Xrotation
						JOINT Head
						{
							OFFSET 0.06388 1.62807 -0.32386
							CHANNELS 3 Zrotation Yrotation Xrotation
							End Site
							{
								OFFSET 0.00995 1.67644 -0.12021
							}
						}
					}
				}
				JOINT LeftCollar
				{
					OFFSET 0 0 0
					CHANNELS 3 Zrotation Yrotation Xrotation
					JOINT LeftShoulder
					{
						OFFSET 3.09648 1.42991 0.28122
CHANNELS 3 Zrotation Xrotation Yrotation
						JOINT LeftElbow
						{
OFFSET 0 -5.118780 -0.000000
CHANNELS 3 Zrotation Xrotation Yrotation
							JOINT LeftWrist
							{
OFFSET 0 -3.599710 0.000000
CHANNELS 3 Zrotation Xrotation Yrotation
								JOINT lhand
								{
									OFFSET 0 0 0
CHANNELS 3 Zrotation Xrotation Yrotation
									JOINT LFingers
									{
OFFSET 0 -0.628770 0.000000
CHANNELS 3 Zrotation Xrotation Yrotation
										End Site
										{
OFFSET 0 -0.506930 0.000000
										}
									}
								}
								JOINT LThumb
								{
OFFSET 0 0.000000 0.000000
CHANNELS 3 Zrotation Xrotation Yrotation
									End Site
									{
OFFSET 0 -0.514670 0.514670
									}
								}
							}
						}
					}
				}
				JOINT RightCollar
				{
					OFFSET 0 0 0
					CHANNELS 3 Zrotation Yrotation Xrotation
					JOINT RightShoulder
					{
						OFFSET -3.33565 1.14597 0.05047
CHANNELS 3 Zrotation Xrotation Yrotation
						JOINT RightElbow
						{
OFFSET 0 -5.490200 0.000000
CHANNELS 3 Zrotation Xrotation Yrotation
							JOINT RightWrist
							{
OFFSET 0 -3.206590 -0.000000
CHANNELS 3 Zrotation Xrotation Yrotation
								JOINT rhand
								{
									OFFSET 0 0 0
CHANNELS 3 Zrotation Xrotation Yrotation
									JOINT RFingers
									{
OFFSET 0 -0.691880 0.000000
CHANNELS 3 Zrotation Xrotation Yrotation
										End Site
										{
OFFSET 0 -0.557810 0.000000
										}
									}
								}
								JOINT RThumb
								{
OFFSET 0 0.000000 0.000000
CHANNELS 3 Zrotation Xrotation Yrotation
									End Site
									{
OFFSET 0 -0.566330 0.566330
									}
								}
							}
						}
					}
				}
			}
		}
	}
}
MOTION
Frames: 9
Frame Time: 0.008333333333333333
-0.357600 17.490900 7.969700 -8.570400 -1.630400 6.050200 0.000000 0.000000 0.000000 -21.009900 -33.824800 25.676300 0.069000 -1.694600 -4.662300 -4.976200 38.751400 -32.886700 0.049400 1.433700 3.943000 0.000000 0.000000 0.000000 29.977700 22.501100 10.699000 -0.004100 -0.413100 1.135000 0.781600 -19.117500 -19.226300 -0.021300 -0.941200 2.587100 0.000000 0.000000 0.000000 0.000000 0.000000 0.000000 0.000000 0.000000 0.000000 0.000000 0.000000 0.000000 0.000000 0.000000 0.000000 0.000000 0.000000 0.000000 0.000000 0.000000 0.000000 90.000000 0.000000 0.000000 0.000000 0.000000 0.000000 -0.000000 0.000000 0.000000 0.000000 0.000000 0.000000 -0.000000 0.000000 -0.000000 0.000000 0.000000 -0.000000 0.000000 0.000000 0.000000 -90.000000 -0.000000 -0.000000 -0.000000 -0.000000 -0.000000 0.000000 0.000000 -0.000000 0.000000 0.000000 0.000000 0.000000 -0.000000 0.000000 0.000000 0.000000 0.000000
-0.357792 17.491208 7.969292 -8.595134 -1.644683 6.062805 0.000000 0.000000 0.000000 -21.078729 -33.962881 25.799090 0.068883 -1.693548 -4.659537 -5.006479 38.865123 -33.045168 0.048531 1.421297 3.908780 0.000000 0.000000 0.000000 29.993613 22.489369 10.654802 -0.004258 -0.421813 1.159036 0.777115 -19.088214 -19.222343 -0.016200 -0.821349 2.257265 0.000000 0.000000 0.000000 0.000000 0.000000 0.000000 0.000000 0.000000 0.000000 0.000000 0.000000 0.000000 0.000000 0.000000 0.000000 0.000000 0.000000 0.000000 0.000000 0.000000 0.000000 90.000000 0.000000 0.000000 0.000000 0.000000 0.000000 0.000000 0.000000 0.000000 0.000000 0.000000 0.000000 0.000000 0.000000 0.000000 0.000000 0.000000 0.000000 0.000000 0.000000 0.000000 -90.000000 0.000000 0.000000 0.000000 0.000000 0.000000 0.000000 0.000000 0.000000 0.000000 0.000000 0.000000 0.000000 0.000000 0.000000 0.000000 0.000000 0.000000
-0.356835 17.491833 7.968667 -8.589745 -1.644135 6.075048 0.000000 0.000000 0.000000 -21.071221 -33.962894 25.776708 0.069166 -1.696512 -4.667721 -5.032800 38.899679 -32.967741 0.044462 1.359983 3.739955 0.000000 0.000000 0.000000 29.988125 22.515838 10.650932 -0.004283 -0.423124 1.162675 0.776322 -19.102201 -19.263805 -0.017364 -0.850715 2.338013 0.000000 0.000000 0.000000 0.000000 0.000000 0.000000 0.000000 0.000000 0.000000 0.000000 0.000000 0.000000 0.000000 0.000000 0.000000 0.000000 0.000000 0.000000 0.000000 0.000000 0.000000 90.000000 0.000000 0.000000 0.000000 0.000000 0.000000 0.000000 0.000000 0.000000 0.000000 0.000000 0.000000 0.000000 0.000000 0.000000 0.000000 0.000000 0.000000 0.000000 0.000000 0.000000 -90.000000 0.000000 0.000000 0.000000 0.000000 0.000000 0.000000 0.000000 0.000000 0.000000 0.000000 0.000000 0.000000 0.000000 0.000000 0.000000 0.000000 0.000000
-0.360060 17.496682 7.977613 -8.335398 -1.620915 6.279297 0.000000 0.000000 0.000000 -21.292315 -34.158019 25.596322 0.068478 -1.688533 -4.645690 -5.101962 39.045385 -32.952486 0.039261 1.278329 3.515065 0.000000 0.000000 0.000000 29.658092 22.684243 10.579741 -0.003354 -0.372471 1.023427 0.795058 -19.248456 -19.330387 -0.021065 -0.936499 2.574154 5.515330 0.755915 -0.010324 1.905113 1.443508 -8.841390 -1.169663 0.368272 -9.269546 -12.351671 -13.317925 -0.198661 10.728738 -19.572666 16.965833 3.806838 -9.617349 7.527858 0.000000 0.000000 0.000000 -3.039278 11.376060 15.087982 12.823576 -21.027348 2.390151 13.799804 25.117212 9.823836 0.000000 0.000000 0.000000 -7.125000 0.000000 0.000000 -9.385755 19.935991 -5.699392 0.000000 0.000000 0.000000 2.544996 11.758028 -7.118233 -14.403190 -23.308210 -2.985797 8.707792 37.534764 30.961713 0.000000 0.000000 0.000000 7.125000 0.000000 0.000000 42.565136 55.600958 -12.729004
-0.365491 17.503188 7.991408 -7.940269 -1.575626 6.512650 0.000000 0.000000 0.000000 -21.753025 -34.498376 25.510526 0.067535 -1.676587 -4.612691 -5.105347 39.149848 -33.281059 0.048301 1.417053 3.897145 0.000000 0.000000 0.000000 29.193417 22.914608 10.595454 -0.001836 -0.277783 0.763204 0.831757 -19.518066 -19.429952 -0.024628 -1.013722 2.786593 5.118391 0.671105 0.001129 1.879402 1.326401 -9.219567 -0.965525 0.325916 -9.709342 -12.631394 -13.171827 0.102377 10.682953 -19.396853 17.108004 3.873522 -9.564810 7.524479 0.000000 0.000000 0.000000 -3.109609 12.647110 12.239810 13.393612 -21.860856 2.598271 14.080496 22.159204 8.708715 0.000000 0.000000 0.000000 -7.125000 0.000000 0.000000 -9.222114 21.054069 -5.362372 0.000000 0.000000 0.000000 2.345478 12.290914 -6.183760 -14.436044 -23.354649 -2.998771 8.805114 36.099821 31.377288 0.000000 0.000000 0.000000 7.125000 0.000000 0.000000 43.036216 55.897923 -13.243109
-0.365514 17.503969 7.993684 -7.877765 -1.557497 6.548159 0.000000 0.000000 0.000000 -21.781701 -34.494728 25.442494 0.067161 -1.672514 -4.601450 -5.083663 39.087262 -33.227917 0.048290 1.418501 3.901209 0.000000 0.000000 0.000000 29.129921 22.969043 10.627981 -0.001600 -0.259710 0.713415 0.842674 -19.596416 -19.456650 -0.028441 -1.088431 2.992109 5.052887 0.597874 -0.034871 1.992042 1.231537 -9.244606 -0.800929 0.289582 -9.724521 -13.010836 -13.045116 0.218344 10.884166 -19.226943 16.902657 4.022287 -9.500596 7.474757 0.000000 0.000000 0.000000 -3.379058 12.748785 11.980195 13.534845 -22.065822 2.650876 14.112741 21.699104 8.542386 0.000000 0.000000 0.000000 -7.125000 0.000000 0.000000 -9.205089 21.221357 -5.316580 0.000000 0.000000 0.000000 2.119759 12.265937 -5.687936 -14.470893 -23.403882 -3.012649 8.928681 35.756592 31.370353 0.000000 0.000000 0.000000 7.125000 0.000000 0.000000 43.140023 55.867486 -13.250531
-0.364253 17.503353 7.993500 -7.872875 -1.539334 6.561435 0.000000 0.000000 0.000000 -21.749896 -34.457530 25.370396 0.066601 -1.665219 -4.581301 -5.097462 39.079737 -33.101967 0.043535 1.345925 3.701181 0.000000 0.000000 0.000000 29.118222 22.963153 10.628920 -0.001551 -0.252693 0.694267 0.845400 -19.606977 -19.444339 -0.026789 -1.054283 2.898154 5.165593 0.766615 -0.070417 1.796691 1.447790 -9.249430 -1.088674 0.377733 -9.690662 -12.743895 -13.188224 0.418149 11.001730 -19.456321 16.669718 4.012692 -9.599401 7.378249 0.000000 0.000000 0.000000 -2.986245 12.617682 11.441654 13.514236 -22.035992 2.643089 13.677988 21.716072 8.336148 0.000000 0.000000 0.000000 -7.125000 0.000000 0.000000 -9.525822 21.449345 -5.456916 0.000000 0.000000 0.000000 2.546589 12.179121 -6.172198 -14.492181 -23.433915 -3.021082 8.914174 35.775078 31.475668 0.000000 0.000000 0.000000 7.125000 0.000000 0.000000 43.225767 55.950176 -13.377431
-0.363545 17.502918 7.993318 -7.865332 -1.544771 6.588936 0.000000 0.000000 0.000000 -21.780713 -34.513824 25.381504 0.066500 -1.663509 -4.576718 -5.120966 39.133307 -33.112226 0.046529 1.392514 3.829499 0.000000 0.000000 0.000000 29.100627 22.981677 10.601973 -0.001500 -0.249182 0.684646 0.858253 -19.647352 -19.361568 -0.020852 -0.931909 2.561575 5.266389 0.938245 -0.110287 1.592516 1.666628 -9.264326 -1.378739 0.467447 -9.663440 -12.371579 -13.341734 0.524440 11.032470 -19.690911 16.550587 3.952553 -9.694973 7.315768 0.000000 0.000000 0.000000 -2.572431 12.468103 11.042473 13.466414 -21.966822 2.625210 13.583926 21.837248 8.372770 0.000000 0.000000 0.000000 -7.125000 0.000000 0.000000 -9.591883 21.416265 -5.503211 0.000000 0.000000 0.000000 2.979361 12.067728 -6.756032 -14.445713 -23.368226 -3.002651 8.891752 35.966697 31.587526 0.000000 0.000000 0.000000 7.125000 0.000000 0.000000 43.311373 56.039489 -13.511987
-0.363463 17.503165 7.992370 -7.861472 -1.554207 6.596798 0.000000 0.000000 0.000000 -21.794620 -34.546864 25.400909 0.067026 -1.670541 -4.595913 -5.152712 39.190195 -33.073192 0.045274 1.372484 3.774390 0.000000 0.000000 0.000000 29.097978 23.027957 10.601706 -0.001567 -0.254509 0.699193 0.850503 -19.633759 -19.435362 -0.024663 -1.013814 2.786794 5.282576 0.960458 -0.141530 1.580009 1.693472 -9.250108 -1.402610 0.479835 -9.626545 -12.352492 -13.321199 0.541649 11.112925 -19.672294 16.490935 3.980072 -9.681747 7.297242 0.000000 0.000000 0.000000 -2.529598 12.372609 11.044176 13.478062 -21.983665 2.629574 13.502450 21.953290 8.437086 0.000000 0.000000 0.000000 -7.125000 0.000000 0.000000 -9.647774 21.354402 -5.549928 0.000000 0.000000 0.000000 3.019903 11.949822 -6.710860 -14.371212 -23.262910 -2.973122 8.901189 36.050090 31.736876 0.000000 0.000000 0.000000 7.125000 0.000000 0.000000 43.461328 56.150263 -13.697417
